<svg xmlns="http://www.w3.org/2000/svg" xml:space="preserve" width="2000" height="665" data-id="lg_gvFJl4P0GvA5xXYuYd" data-version="1" viewBox="0 0 2000 665"><g data-padding="20"><g transform="translate(10 10.137)scale(.96951)"><path fill="#222" d="M1021.132 8.726a328.056 328.056 0 1 0 0 656.112 328.056 328.056 0 1 0 0-656.112"/><rect width="77" height="135.6" x="90.903" y="-80.97" fill="none" rx="0" ry="0" transform="matrix(4.8 0 0 4.8 405.57 388.82)"/><path fill="#efefef" d="M1106.932 190.252q0 6.19 2.53 10.41t2.53 7.6q-1.12 5.62 2.25 13.22 3.38 7.59 3.38 15.47-1.13 3.38-8.72 8.72-7.6 5.35-16.88 11.54t-18 12.09q-8.72 5.91-12.1 9.29 2.81 4.5 7.03 7.31t8.16 5.63q3.38 2.81 9.85 8.16 6.47 5.34 13.5 11.53t12.94 11.81q5.91 5.63 7.6 8.44 1.12.57 1.97 3.94.84 3.38 1.4 7.6t.85 8.16q.28 3.93.28 5.06-.57 6.19.28 9 .84 2.82 1.69 5.91.84 3.09 1.4 5.91l.57 2.81q0 3.38-3.1 6.19-3.09 2.81-5.91 5.06-2.81 2.25-5.34 4.5t-5.35 5.07q-3.37 2.81-7.59 5.34t-7.6 5.35q-2.25 1.12-3.94 3.09-1.68 1.97-3.37 3.1-5.07 4.5-11.25 8.72-6.19 4.22-11.82 7.59-6.19 3.94-11.82 8.16-5.62 4.22-11.81 8.72-8.44 5.07-16.6 9.85t-16.03 9.84q-3.94 2.82-7.6 5.63t-7.59 5.06q-11.26 6.19-22.51 12.94-11.25 6.76-21.94 14.63-9 2.25-12.94 3.66t-7.88 1.41q-3.38 0-4.22-2.53-.84-2.54-3.09-2.54-8.44 1.13-9.29.28-.84-.84-2.53-1.96-8.44 1.12-14.07 0-1.68-2.82-2.25-7.04-.56-4.22-3.37-7.03 1.12-5.63.28-10.69t.28-10.13q-1.69-6.75-1.69-12.38 0-7.31 1.69-15.19-1.69-5.06-1.69-10.12 0-4.51.57-9.01.56-4.5.56-9 0-5.62-2.25-10.13 0-10.12-.28-19.97t-.28-19.97v-9.01q0-4.5.56-9.56-.56-2.81-.56-8.44 0-3.38 1.12-5.91 1.13-2.53 1.13-5.34 0-6.19-.85-11.82-.84-5.62-.84-11.81 0-5.63.84-10.69.85-5.07.85-10.69-1.69-2.25-2.25-5.07-.57-2.81-.57-5.62 0-2.25 1.13-6.75 0-4.51-.56-9.57-.57-5.06-.57-9.56 0-2.25.28-3.94.29-1.69.85-3.94-1.13-3.94-1.13-7.88v-7.87q0-5.07.57-10.41.56-5.35.56-10.41-.56-8.44.28-13.22.84-4.79 1.41-9.85v-32.07q0-4.5-1.13-9.85-1.12-5.34-1.12-10.4 0-2.82.56-8.44.56-5.63 1.69-8.44 7.87-11.82 18.56-13.51 2.25-1.12 3.38-3.09 1.12-1.97 5.06-1.97 6.75-5.63 9-8.72 2.25-3.1 5.63-5.91 1.69 0 3.1-.84 1.4-.85 3.65-.85 3.94 1.13 6.47 2.25 2.53 1.13 5.35 1.69 11.25 8.44 22.22 16.6t22.23 17.16q5.06 4.5 9.84 9t9.85 8.44q2.81 1.69 6.19 3.38 3.37 1.68 6.19 3.94 6.18 3.93 12.37 8.15t12.38 8.16l40.51 25.32q4.5 2.81 8.72 5.63 4.22 2.81 8.16 5.62m-80.46 24.2q-8.44-3.94-16.03-9.57-7.6-5.63-16.04-8.44-4.5-4.5-9.56-6.19t-9.57-5.06q-5.06-4.5-9-7.88-3.94-3.37-10.13-6.19-2.81 17.44-4.22 34.04-1.4 16.6-1.4 33.48 0 17.44 3.37 33.19 6.19-2.81 11.82-6.18 5.63-3.38 11.25-6.76 2.25-1.12 4.22-2.25 1.97-1.12 4.78-2.25 2.82-2.25 5.63-4.5t5.63-3.94q6.19-4.5 12.09-8.15 5.91-3.66 12.1-8.16 2.81-2.25 6.19-3.66 3.37-1.41 6.75-4.22-.56-2.25-3.66-3.66-3.09-1.4-4.22-3.65m-16.31 105.21q-1.69 0-3.38-.85-1.69-.84-3.94-.84-6.75 4.5-12.66 7.6-5.9 3.09-12.09 7.03-2.82 1.69-5.63 3.94t-5.63 3.37q-7.31 4.5-11.25 7.6-3.94 3.09-6.19 7.59 1.13 15.76.85 31.51-.28 15.76-.28 32.07 0 2.82 1.68 6.19 5.07-.56 18.01-7.59 12.94-7.04 27.29-16.04 14.34-9 27.56-17.44 13.23-8.44 19.42-12.38 4.5-1.12 10.4-4.5 5.91-3.38 7.04-7.88-10.69-12.38-24.76-20.53-14.06-8.16-26.44-18.85" paint-order="stroke"/></g><path fill="transparent" stroke="transparent" d="M672 0h656v665H672z"/></g></svg>